<svg width="310" height="137" viewBox="0 0 310 137" fill="none" xmlns="http://www.w3.org/2000/svg">
<path d="M43.9746 109.788C43.9746 111.439 43.7705 112.915 43.3623 114.213C42.9541 115.512 42.3975 116.663 41.6924 117.665C41.0059 118.648 40.208 119.492 39.2988 120.197C38.3896 120.902 37.4341 121.478 36.4321 121.923C35.4487 122.368 34.4468 122.693 33.4263 122.897C32.4243 123.101 31.478 123.203 30.5874 123.203H14.2222V115.967H30.5874C31.5151 115.893 32.3501 115.707 33.0923 115.41C33.853 115.095 34.5024 114.677 35.0405 114.158C35.5786 113.638 35.9961 113.017 36.293 112.293C36.5898 111.551 36.7383 110.716 36.7383 109.788V106.504C36.6455 105.595 36.4507 104.76 36.1538 103.999C35.8569 103.238 35.4487 102.589 34.9292 102.051C34.4282 101.513 33.8159 101.095 33.0923 100.798C32.3687 100.483 31.5337 100.325 30.5874 100.325H14.2778C13.313 100.325 12.5801 100.576 12.0791 101.077C11.5781 101.578 11.3276 102.301 11.3276 103.248V133H4.09131V103.248C4.09131 101.392 4.42529 99.8149 5.09326 98.5161C5.77979 97.2173 6.62402 96.1689 7.62598 95.3711C8.64648 94.5732 9.75049 93.998 10.938 93.6455C12.1255 93.2744 13.2202 93.0889 14.2222 93.0889H30.5874C32.2202 93.0889 33.686 93.3022 34.9849 93.729C36.2837 94.1372 37.4248 94.6938 38.4082 95.3989C39.4102 96.0854 40.2544 96.8833 40.9409 97.7925C41.646 98.7017 42.2212 99.6572 42.6665 100.659C43.1304 101.643 43.4644 102.645 43.6685 103.665C43.8726 104.667 43.9746 105.613 43.9746 106.504V109.788ZM68.8731 133H61.6368V93.0889H68.8731V133ZM128.617 129.911C128.617 130.43 128.515 130.913 128.311 131.358C128.126 131.803 127.866 132.193 127.532 132.527C127.217 132.842 126.836 133.093 126.391 133.278C125.946 133.464 125.472 133.557 124.971 133.557C124.526 133.557 124.071 133.473 123.608 133.306C123.162 133.139 122.763 132.87 122.411 132.499L95.9704 104.89V133H88.7341V96.1782C88.7341 95.436 88.9382 94.7681 89.3464 94.1743C89.7731 93.562 90.3112 93.1074 90.9606 92.8105C91.6472 92.5322 92.3522 92.4673 93.0759 92.6157C93.7995 92.7456 94.4211 93.0796 94.9406 93.6177L121.381 121.199V93.0889H128.617V129.911ZM187.61 133H180.374V123.203H154.935V133H147.699V113.044C147.699 110.131 148.2 107.45 149.202 105.001C150.204 102.552 151.596 100.446 153.377 98.6831C155.158 96.9204 157.264 95.5474 159.695 94.564C162.125 93.5806 164.779 93.0889 167.655 93.0889H183.964C184.465 93.0889 184.938 93.1816 185.384 93.3672C185.829 93.5527 186.219 93.8125 186.553 94.1465C186.887 94.4805 187.146 94.8701 187.332 95.3154C187.517 95.7607 187.61 96.2339 187.61 96.7349V133ZM154.935 115.967H180.374V100.325H167.655C167.432 100.325 166.959 100.362 166.235 100.437C165.53 100.492 164.704 100.65 163.758 100.91C162.83 101.169 161.847 101.568 160.808 102.106C159.769 102.645 158.813 103.387 157.941 104.333C157.069 105.279 156.346 106.467 155.77 107.896C155.214 109.306 154.935 111.022 154.935 113.044V115.967ZM249.275 133H239.005L222.723 116.69H217.63V109.398H222.723L239.005 93.0889H249.275L228.763 113.044L249.275 133ZM214.735 133H207.499V93.0889H214.735V133ZM304.371 133H297.135V123.203H271.696V133H264.46V113.044C264.46 110.131 264.961 107.45 265.963 105.001C266.965 102.552 268.356 100.446 270.138 98.6831C271.919 96.9204 274.025 95.5474 276.456 94.564C278.886 93.5806 281.54 93.0889 284.416 93.0889H300.725C301.226 93.0889 301.699 93.1816 302.145 93.3672C302.59 93.5527 302.979 93.8125 303.313 94.1465C303.647 94.4805 303.907 94.8701 304.093 95.3154C304.278 95.7607 304.371 96.2339 304.371 96.7349V133ZM271.696 115.967H297.135V100.325H284.416C284.193 100.325 283.72 100.362 282.996 100.437C282.291 100.492 281.465 100.65 280.519 100.91C279.591 101.169 278.608 101.568 277.569 102.106C276.53 102.645 275.574 103.387 274.702 104.333C273.83 105.279 273.106 106.467 272.531 107.896C271.975 109.306 271.696 111.022 271.696 113.044V115.967Z" fill="white"/>
<path d="M154.993 33.2633C237.698 33.2633 305.275 57.8402 309.751 88.8145C309.912 87.7287 310 86.6429 310 85.5425C310 53.0569 240.604 26.7192 155.007 26.7192C69.396 26.7192 0 53.0422 0 85.5278C0 86.6282 0.0880473 87.714 0.249467 88.7998C4.72521 57.8402 72.2869 33.2633 154.993 33.2633Z" fill="url(#paint0_linear_610_6714)"/>
<path d="M154.288 0.454851L145.131 19.5295C144.985 19.8376 145.058 20.2191 145.307 20.4539L154.464 15.6706C154.773 15.9493 155.242 15.9493 155.55 15.6706L164.707 20.4539C164.957 20.2191 165.03 19.8376 164.883 19.5295L155.712 0.454851C155.418 -0.146734 154.567 -0.146734 154.274 0.454851H154.288Z" fill="white"/>
<defs>
<linearGradient id="paint0_linear_610_6714" x1="155" y1="26.7192" x2="155" y2="88.8145" gradientUnits="userSpaceOnUse">
<stop stop-color="#FF354D"/>
<stop offset="1" stop-color="#FF5134"/>
</linearGradient>
</defs>
</svg>
