<svg width="19" height="20" viewBox="0 0 19 20" fill="none" xmlns="http://www.w3.org/2000/svg">
<path d="M5.85788 4.4586C6.51946 4.93401 7.44143 4.4612 7.44143 3.64652V1C7.44143 0.447716 7.88915 0 8.44143 0H10.9751C11.5273 0 11.9751 0.447715 11.9751 1V3.60188C11.9751 4.4168 12.8975 4.88954 13.559 4.41365L15.4171 3.07697C15.8646 2.75507 16.4882 2.85596 16.8113 3.30255L18.3066 5.36928C18.6311 5.8178 18.5295 6.44463 18.0799 6.76763L14.7108 9.18784C14.1554 9.58684 14.1554 10.4132 14.7108 10.8122L18.0799 13.2324C18.5295 13.5554 18.6311 14.1822 18.3066 14.6307L16.8113 16.6975C16.4882 17.144 15.8646 17.2449 15.4171 16.923L13.559 15.5863C12.8975 15.1105 11.9751 15.5832 11.9751 16.3981V19C11.9751 19.5523 11.5273 20 10.9751 20H8.44143C7.88915 20 7.44143 19.5523 7.44143 19V16.381C7.44143 15.5693 6.52554 15.0958 5.8633 15.565L3.93893 16.9285C3.48898 17.2473 2.86586 17.1417 2.54609 16.6925L1.07623 14.6274C0.757401 14.1794 0.860007 13.5581 1.30593 13.2365L4.66846 10.811C5.22179 10.4119 5.22179 9.58809 4.66846 9.18897L1.30593 6.76354C0.860007 6.44189 0.757401 5.82057 1.07623 5.37263L2.54223 3.31297C2.86351 2.86158 3.49055 2.75745 3.94048 3.08077L5.85788 4.4586Z" fill="#a7a7a7" fill-opacity="100"/>
</svg>
